<svg xmlns="http://www.w3.org/2000/svg" height="800" width="1200" viewBox="-14.179935 -15.68035 122.89277 94.0821"><path fill="#cf3828" d="M21.201 53.616H17.62l-6.37 9.1052h3.581zm3.8662 7.8748h-3.898l1.9015-2.707h3.898l.8556-1.2304h-3.898l1.9015-2.707h3.898l.8556-1.2304h-7.479l-6.3698 9.1052h7.479zm69.4657-7.8748h-8.6516l-.8556 1.2612h2.2183l-5.5141 7.844h3.581l5.5142-7.8747h2.8521zm-81.2229 0H6.3698L0 62.7212h3.581l2.0916-2.953h4.31s1.1408.0307 1.6795-.7383l2.8205-4.0296s.9507-1.3843-1.1726-1.3843zm-1.4577 1.5996l-2.155 3.0453c-.1901.2769-.6655.2769-.6655.2769H6.5283l2.5669-3.6606h2.5352c.4754-.0307.2219.3384.2219.3384zm28.1095-1.5996h-7.1621l-6.3698 9.1052h8.1445s1.1408 0 1.6796-.7382l4.912-6.9827c-.0317 0 .919-1.3843-1.2042-1.3843zm-1.4578 1.5996l-4.2465 5.9983c-.1902.2769-.6655.2769-.6655.2769h-2.7571l4.6585-6.6136h2.7888c.507-.0307.2218.3384.2218.3384zm19.4897 7.5056c-2.1233 0-1.1726-1.3842-1.1726-1.3842l4.912-6.9827c.5388-.769 1.6797-.7383 1.6797-.7383h6.8768c2.1233 0 1.1726 1.3843 1.1726 1.3843l-4.912 6.9827c-.5388.769-1.6797.7382-1.6797.7382zm4.9437-1.2304s.4754 0 .6655-.2769l4.2465-6.029s.2852-.3384-.2218-.3384h-2.2817s-.4754 0-.6655.2768l-4.2466 6.0291s-.2535.3384.2219.3384zm-12.5178 1.2304h3.581l5.3558-7.7517s.9507-1.3842-1.1726-1.3842h-14.134L37.68 62.6905h3.581l5.5142-7.8748h2.2817c.2536 0 .317.0923.2853.1846l-5.3874 7.6902h3.581l5.5142-7.8748h2.44c.3803 0 .2852.2153.2219.3076zm24.2116 0h3.581l5.3557-7.7517s.9508-1.3842-1.1725-1.3842h-7.986l-6.3698 9.1052h3.581-3.581 3.581l5.5142-7.8748h2.5669c.3803 0 .2852.2153.2535.3076z"/><path d="M44.8738 36.6053L79.8918 0l-.412 6.0599-30.1376 31.9296c-.5388.523-.1585.8614-.1585.8614.507.3383.8873-.3077.8873-.3077L79.3531 7.6287l-.412 5.8138-23.039 24.5163c-.5387.523-.1585.8613-.1585.8613.5071.3384.8874-.3076.8874-.3076L78.8144 15.042l-.4754 6.6443-15.7502 16.3648c-.507.4306-.3486.7998-.3486.7998.1902.5229.9507.369.9507.369h19.5848c-14.0706 10.0589-63.4445 4.7988-63.4445 4.7988-1.7746-.123-.7605-1.0767-.7605-1.0767l2.0598-1.9687c1.2043-1.015 2.979-.9535 2.979-.9535 5.8944-.5845 14.8311-.7383 14.8311-.7383 4.3416.0615 6.4332-2.6762 6.4332-2.6762z" fill="#1c68a7"/></svg>